<?xml version="1.0" encoding="UTF-8" standalone="no"?>
<!DOCTYPE svg PUBLIC "-//W3C//DTD SVG 1.1//EN" "http://www.w3.org/Graphics/SVG/1.1/DTD/svg11.dtd">
<svg xmlns="http://www.w3.org/2000/svg" version="1.1" viewBox="108 370 780 255">
<g stroke-width="2.00" fill="none" stroke-linecap="butt">
<path stroke="#d3c7b1" vector-effect="non-scaling-stroke" d="
  M 147.4133 376.1568
  A 0.99 0.99 0.0 0 0 146.4268 375.1634
  L 138.7868 375.1367
  A 0.99 0.99 0.0 0 0 137.7934 376.1232
  L 137.7667 383.7632
  A 0.99 0.99 0.0 0 0 138.7532 384.7566
  L 146.3932 384.7833
  A 0.99 0.99 0.0 0 0 147.3866 383.7968
  L 147.4133 376.1568"
/>
<path stroke="#c4c3c0" vector-effect="non-scaling-stroke" d="
  M 189.3844 389.8307
  A 0.85 0.85 0.0 0 0 188.5285 388.9866
  L 178.9287 389.0537
  A 0.85 0.85 0.0 0 0 178.0847 389.9096
  L 178.1556 400.0693
  A 0.85 0.85 0.0 0 0 179.0115 400.9134
  L 188.6113 400.8463
  A 0.85 0.85 0.0 0 0 189.4553 399.9904
  L 189.3844 389.8307"
/>
<path stroke="#d3c7b1" vector-effect="non-scaling-stroke" d="
  M 128.58 403.26
  A 0.84 0.84 0.0 0 0 129.42 402.42
  L 129.42 395.22
  A 0.84 0.84 0.0 0 0 128.58 394.38
  L 121.39 394.38
  A 0.84 0.84 0.0 0 0 120.55 395.22
  L 120.55 402.42
  A 0.84 0.84 0.0 0 0 121.39 403.26
  L 128.58 403.26"
/>
<path stroke="#c4c3c0" vector-effect="non-scaling-stroke" d="
  M 153.2106 400.8495
  A 1.01 1.01 0.0 0 0 152.1866 399.8537
  L 144.0474 399.9673
  A 1.01 1.01 0.0 0 0 143.0516 400.9913
  L 143.1694 409.4305
  A 1.01 1.01 0.0 0 0 144.1934 410.4263
  L 152.3326 410.3127
  A 1.01 1.01 0.0 0 0 153.3284 409.2887
  L 153.2106 400.8495"
/>
<path stroke="#d3c7b1" vector-effect="non-scaling-stroke" d="
  M 177.90 411.01
  A 1.06 1.06 0.0 0 0 176.84 409.95
  L 160.54 409.95
  A 1.06 1.06 0.0 0 0 159.48 411.01
  L 159.48 427.31
  A 1.06 1.06 0.0 0 0 160.54 428.37
  L 176.84 428.37
  A 1.06 1.06 0.0 0 0 177.90 427.31
  L 177.90 411.01"
/>
<path stroke="#c4c3c0" vector-effect="non-scaling-stroke" d="
  M 124.70 427.28
  A 0.67 0.67 0.0 0 0 125.37 427.95
  L 134.18 427.95
  A 0.67 0.67 0.0 0 0 134.85 427.28
  L 134.85 418.46
  A 0.67 0.67 0.0 0 0 134.18 417.79
  L 125.37 417.79
  A 0.67 0.67 0.0 0 0 124.70 418.46
  L 124.70 427.28"
/>
<path stroke="#c4c3c0" vector-effect="non-scaling-stroke" d="
  M 200.5451 425.1463
  A 0.71 0.71 0.0 0 0 199.8363 424.4351
  L 182.5563 424.4049
  A 0.71 0.71 0.0 0 0 181.8451 425.1137
  L 181.8149 442.3937
  A 0.71 0.71 0.0 0 0 182.5237 443.1049
  L 199.8037 443.1351
  A 0.71 0.71 0.0 0 0 200.5149 442.4263
  L 200.5451 425.1463"
/>
<path stroke="#c4c3c0" vector-effect="non-scaling-stroke" d="
  M 160.2938 434.7006
  A 0.95 0.95 0.0 0 0 159.3388 433.7556
  L 142.3391 433.8446
  A 0.95 0.95 0.0 0 0 141.3941 434.7996
  L 141.4862 452.3994
  A 0.95 0.95 0.0 0 0 142.4412 453.3444
  L 159.4409 453.2554
  A 0.95 0.95 0.0 0 0 160.3859 452.3004
  L 160.2938 434.7006"
/>
<path stroke="#d3c7b1" vector-effect="non-scaling-stroke" d="
  M 206.23 435.95
  L 206.23 445.04
  A 0.54 0.53 87.6 0 0 206.81 445.58
  C 214.04 445.02 221.24 446.28 228.18 449.43
  C 246.74 457.87 260.15 469.87 279.85 459.95
  A 0.64 0.63 34.3 0 0 279.62 458.75
  Q 277.67 458.57 274.25 458.45
  C 263.13 458.04 251.99 450.66 241.89 444.62
  C 231.21 438.22 219.26 434.61 206.59 435.56
  A 0.39 0.38 88.5 0 0 206.23 435.95"
/>
<path stroke="#d3c7b1" vector-effect="non-scaling-stroke" d="
  M 260.00 445.42
  A 0.73 0.73 0.0 0 0 259.96 446.76
  C 263.81 448.60 271.38 451.91 275.77 450.03
  C 288.53 444.57 300.41 443.17 312.91 450.60
  C 321.23 455.54 323.79 462.30 326.73 471.21
  A 0.97 0.96 57.0 0 0 328.36 471.56
  L 333.97 465.37
  A 2.26 2.24 -30.6 0 0 334.50 463.34
  Q 332.58 455.01 325.13 447.87
  Q 311.85 435.14 295.09 435.46
  C 283.38 435.69 272.35 440.40 260.00 445.42"
/>
<path stroke="#8993a3" vector-effect="non-scaling-stroke" d="
  M 167.07 526.35
  Q 161.05 532.38 155.81 540.33
  Q 153.83 543.34 152.91 547.73
  C 150.04 561.48 173.05 560.21 180.26 559.31
  C 189.67 558.14 200.83 555.63 209.97 552.84
  Q 242.25 542.98 270.10 530.31
  Q 285.99 523.09 308.49 510.68
  Q 315.14 507.01 323.48 501.60
  C 334.60 494.38 345.39 487.17 353.91 477.67
  C 360.84 469.95 370.53 457.38 357.72 449.56
  C 351.68 445.87 341.34 445.07 333.89 445.87
  A 0.39 0.39 0.0 0 0 333.84 446.64
  Q 337.38 447.51 340.35 449.43
  C 354.08 458.27 335.31 474.72 328.18 480.44
  Q 313.74 492.03 297.28 501.27
  Q 265.93 518.89 235.91 530.37
  C 215.64 538.12 196.63 544.53 176.35 544.45
  C 170.78 544.43 164.55 543.71 164.14 536.94
  Q 163.81 531.58 167.87 526.58
  A 0.05 0.05 0.0 0 0 167.86 526.51
  L 167.67 526.33
  A 0.43 0.43 0.0 0 0 167.07 526.35"
/>
<path stroke="#d3c7b1" vector-effect="non-scaling-stroke" d="
  M 191.1659 450.4849
  A 0.75 0.75 0.0 0 0 190.4133 449.7376
  L 166.0534 449.8226
  A 0.75 0.75 0.0 0 0 165.3061 450.5752
  L 165.3941 475.7951
  A 0.75 0.75 0.0 0 0 166.1467 476.5424
  L 190.5066 476.4574
  A 0.75 0.75 0.0 0 0 191.2539 475.7048
  L 191.1659 450.4849"
/>
<path stroke="#d3c7b1" vector-effect="non-scaling-stroke" d="
  M 210.08 464.74
  A 0.53 0.53 0.0 0 0 209.55 464.21
  L 198.35 464.21
  A 0.53 0.53 0.0 0 0 197.82 464.74
  L 197.82 475.94
  A 0.53 0.53 0.0 0 0 198.35 476.47
  L 209.55 476.47
  A 0.53 0.53 0.0 0 0 210.08 475.94
  L 210.08 464.74"
/>
<path stroke="#d3c7b1" vector-effect="non-scaling-stroke" d="
  M 191.43 535.29
  Q 186.66 522.32 183.16 510.61
  C 180.22 500.80 179.73 494.04 179.42 483.28
  A 1.26 1.25 89.1 0 0 178.17 482.06
  L 170.75 482.06
  A 1.27 1.26 89.8 0 0 169.49 483.34
  Q 169.60 497.97 173.03 510.28
  C 175.63 519.66 177.99 528.20 180.91 536.16
  A 2.64 2.63 77.2 0 0 183.61 537.87
  L 190.17 537.28
  A 1.48 1.48 0.0 0 0 191.43 535.29"
/>
<path stroke="#c4c3c0" vector-effect="non-scaling-stroke" d="
  M 878.07 556.72
  L 878.07 565.15
  A 0.42 0.42 0.0 0 0 878.49 565.57
  L 891.38 565.57
  A 0.59 0.59 0.0 0 0 891.97 564.98
  L 891.97 484.42
  A 1.22 1.22 0.0 0 0 890.75 483.20
  L 877.38 483.20
  A 0.77 0.76 90.0 0 0 876.62 483.97
  L 876.62 513.50
  A 0.28 0.27 -69.1 0 1 876.16 513.71
  Q 874.98 512.63 873.26 510.89
  C 865.89 503.44 852.42 503.90 843.98 509.48
  C 829.99 518.75 827.98 537.81 834.65 552.19
  C 842.32 568.72 866.94 572.45 877.55 556.57
  A 0.28 0.28 0.0 0 1 878.07 556.72"
/>
<path stroke="#c4c3c0" vector-effect="non-scaling-stroke" d="
  M 743.76 536.57
  C 755.54 533.79 761.28 521.86 760.52 510.52
  Q 759.59 496.47 748.38 489.95
  C 742.36 486.44 735.82 486.02 728.50 485.98
  Q 719.46 485.93 696.89 485.84
  A 0.48 0.48 0.0 0 0 696.40 486.32
  L 696.40 564.77
  A 0.81 0.81 0.0 0 0 697.21 565.58
  L 710.62 565.58
  A 0.87 0.87 0.0 0 0 711.49 564.71
  L 711.49 539.47
  A 0.33 0.33 0.0 0 1 711.82 539.14
  L 725.63 539.14
  A 1.90 1.88 -16.8 0 1 727.20 539.97
  Q 733.84 549.70 741.74 561.29
  C 743.48 563.84 744.54 565.71 747.99 565.71
  Q 757.83 565.73 763.01 566.04
  A 0.42 0.42 0.0 0 0 763.42 565.45
  Q 762.64 563.69 761.60 562.19
  Q 759.50 559.14 747.14 541.90
  Q 745.69 539.87 743.51 537.34
  A 0.47 0.47 0.0 0 1 743.76 536.57"
/>
<path stroke="#8993a3" vector-effect="non-scaling-stroke" d="
  M 372.93 486.49
  L 372.65 565.39
  A 0.28 0.28 0.0 0 0 372.93 565.67
  L 407.09 565.79
  A 37.74 37.72 0.2 0 0 444.96 528.21
  L 444.98 524.19
  A 37.74 37.72 0.2 0 0 407.37 486.33
  L 373.21 486.22
  A 0.28 0.28 0.0 0 0 372.93 486.49"
/>
<path stroke="#8993a3" vector-effect="non-scaling-stroke" d="
  M 606.37 519.37
  L 620.34 519.47
  A 1.13 1.13 0.0 0 0 621.48 518.34
  L 621.48 507.70
  A 0.88 0.88 0.0 0 0 620.60 506.82
  L 606.85 506.82
  A 0.47 0.47 0.0 0 1 606.38 506.35
  L 606.38 490.12
  A 0.50 0.50 0.0 0 0 605.88 489.62
  L 592.63 489.62
  A 0.45 0.44 0.0 0 0 592.18 490.06
  L 592.18 505.83
  A 0.73 0.72 -0.0 0 1 591.45 506.55
  L 583.63 506.55
  A 0.73 0.72 -90.0 0 0 582.91 507.28
  L 582.91 518.71
  A 0.61 0.61 0.0 0 0 583.52 519.32
  L 591.50 519.32
  A 0.61 0.61 0.0 0 1 592.11 519.94
  Q 591.88 533.33 591.97 547.75
  C 592.00 553.59 594.09 561.11 599.54 563.83
  Q 611.79 569.92 623.46 562.29
  A 0.63 0.63 0.0 0 0 623.71 561.58
  L 620.44 551.39
  A 0.41 0.41 0.0 0 0 619.91 551.14
  C 615.89 552.71 610.58 554.39 607.49 550.23
  Q 605.98 548.20 606.04 541.99
  Q 606.24 520.74 605.98 519.91
  A 0.41 0.41 0.0 0 1 606.37 519.37"
/>
<path stroke="#d3c7b1" vector-effect="non-scaling-stroke" d="
  M 338.47 500.22
  A 0.62 0.62 0.0 0 0 337.48 499.61
  L 329.19 506.32
  A 4.49 3.84 -73.4 0 1 328.43 506.81
  L 325.69 508.20
  A 1.63 1.62 85.7 0 0 324.91 509.11
  Q 324.63 509.78 324.32 512.55
  C 323.72 517.75 321.46 524.95 318.92 531.58
  Q 315.45 540.66 314.25 544.76
  Q 312.75 549.93 311.10 561.12
  Q 309.79 570.07 306.72 582.98
  Q 304.77 591.18 299.14 601.19
  C 296.95 605.08 292.06 608.91 288.23 604.18
  Q 286.24 601.72 284.55 597.45
  C 279.37 584.36 275.41 554.53 258.18 550.25
  C 253.50 549.09 247.22 550.78 243.52 554.05
  C 236.78 559.99 233.94 566.99 230.63 576.38
  C 227.85 584.28 225.90 595.11 220.91 602.88
  Q 220.00 604.30 217.87 605.76
  A 1.70 1.68 -58.2 0 1 216.71 606.04
  C 210.06 605.19 206.83 595.92 204.90 590.36
  Q 200.24 576.88 198.48 563.92
  A 1.13 1.13 0.0 0 0 197.16 562.96
  L 188.67 564.50
  A 1.06 1.05 80.3 0 0 187.82 565.71
  Q 188.88 572.09 191.12 580.28
  C 194.38 592.20 196.94 601.46 203.44 610.27
  C 206.86 614.89 213.19 618.52 219.27 616.76
  Q 225.41 614.98 228.28 610.43
  C 236.38 597.61 237.83 583.05 244.63 568.88
  C 247.25 563.43 251.88 557.95 258.11 561.30
  C 262.13 563.46 265.58 570.89 266.92 575.37
  C 269.70 584.67 273.30 597.93 278.03 607.42
  C 280.59 612.55 286.22 617.96 292.24 617.18
  C 300.22 616.15 305.17 610.70 308.99 603.99
  Q 315.73 592.17 318.38 578.94
  Q 320.01 570.78 322.39 557.38
  Q 324.23 547.08 325.76 542.99
  Q 333.85 521.38 338.47 500.22"
/>
<path stroke="#8993a3" vector-effect="non-scaling-stroke" d="
  M 466.76 541.24
  A 0.24 0.23 84.9 0 1 466.99 540.96
  L 508.21 540.96
  A 0.46 0.46 0.0 0 0 508.67 540.51
  C 508.90 530.29 508.29 521.22 501.29 513.13
  C 495.26 506.16 484.47 504.30 475.77 505.69
  C 462.59 507.80 453.95 518.39 452.58 531.44
  C 451.38 542.93 455.25 556.39 465.62 562.17
  Q 479.72 570.03 495.27 563.54
  C 499.47 561.79 502.83 558.65 505.53 555.10
  A 0.69 0.69 0.0 0 0 505.45 554.17
  L 497.67 547.12
  A 0.84 0.83 -47.7 0 0 496.50 547.18
  Q 491.83 552.30 485.46 553.60
  C 480.55 554.61 473.26 553.00 470.08 548.75
  Q 467.60 545.41 466.76 541.24"
/>
<path stroke="#8993a3" vector-effect="non-scaling-stroke" d="
  M 534.05 514.75
  L 534.05 507.29
  A 0.68 0.68 0.0 0 0 533.37 506.61
  L 520.47 506.61
  A 0.61 0.61 0.0 0 0 519.86 507.22
  L 519.86 564.96
  A 0.55 0.54 90.0 0 0 520.40 565.51
  L 533.70 565.51
  A 0.70 0.70 0.0 0 0 534.40 564.81
  Q 534.53 542.77 534.34 534.93
  C 534.12 525.80 539.16 518.19 549.17 518.94
  C 554.36 519.33 557.01 522.13 559.00 526.56
  Q 559.98 528.74 560.02 533.75
  Q 560.15 547.78 560.07 564.98
  A 0.57 0.57 0.0 0 0 560.64 565.55
  L 573.94 565.55
  A 0.55 0.55 0.0 0 0 574.49 565.00
  Q 574.55 540.44 574.27 528.52
  C 574.02 518.37 570.05 508.47 559.54 506.03
  C 549.91 503.81 540.34 506.29 534.58 514.91
  A 0.29 0.29 0.0 0 1 534.05 514.75"
/>
<path stroke="#8993a3" vector-effect="non-scaling-stroke" d="
  M 666.53 559.24
  L 666.53 564.39
  A 1.03 1.03 0.0 0 0 667.56 565.42
  L 680.36 565.42
  A 0.51 0.51 0.0 0 0 680.87 564.91
  Q 680.69 551.53 680.64 531.77
  Q 680.62 525.34 679.63 521.81
  Q 675.16 505.96 657.99 505.39
  C 650.30 505.13 638.99 506.93 632.55 512.17
  A 0.63 0.62 -39.5 0 0 632.46 513.05
  Q 633.55 514.34 633.84 515.19
  Q 635.16 519.14 636.76 522.78
  A 0.93 0.93 0.0 0 0 638.15 523.17
  C 644.97 518.38 656.31 515.58 663.28 521.41
  C 666.10 523.77 666.34 526.56 666.32 529.73
  A 0.67 0.67 0.0 0 1 665.63 530.39
  C 657.20 530.12 644.56 528.87 636.97 533.41
  C 628.33 538.58 626.03 549.92 631.41 558.32
  C 637.57 567.93 649.53 568.28 659.53 563.95
  C 662.06 562.86 663.39 561.25 665.61 558.88
  A 0.53 0.53 0.0 0 1 666.53 559.24"
/>
<path stroke="#c4c3c0" vector-effect="non-scaling-stroke" d="
  M 806.10 530.58
  C 800.93 529.76 795.71 529.85 790.62 529.81
  C 777.95 529.71 766.72 538.08 769.03 551.78
  Q 770.83 562.46 781.67 565.83
  C 790.27 568.50 800.43 565.31 806.35 558.99
  A 0.66 0.66 0.0 0 1 807.49 559.44
  L 807.49 564.92
  A 0.68 0.68 0.0 0 0 808.17 565.60
  L 820.64 565.60
  A 1.02 1.02 0.0 0 0 821.66 564.56
  Q 821.39 549.51 821.40 530.50
  C 821.41 518.35 816.54 509.00 803.96 506.25
  Q 788.22 502.80 774.21 511.06
  A 1.80 1.79 -26.8 0 0 773.47 513.29
  L 777.28 522.30
  A 1.12 1.12 0.0 0 0 778.94 522.80
  Q 786.58 517.73 795.55 518.29
  Q 806.48 518.98 806.73 530.04
  A 0.55 0.54 4.1 0 1 806.10 530.58"
/>
<path stroke="#c4c3c0" vector-effect="non-scaling-stroke" d="
  M 860.5107 518.7388
  A 17.36 15.63 -93.3 0 0 845.9059 536.9697
  A 17.36 15.63 -93.3 0 0 862.5093 553.4012
  A 17.36 15.63 -93.3 0 0 877.1141 535.1703
  A 17.36 15.63 -93.3 0 0 860.5107 518.7388"
/>
<path stroke="#c4c3c0" vector-effect="non-scaling-stroke" d="
  M 711.53 500.26
  L 711.53 524.40
  A 0.67 0.67 0.0 0 0 712.22 525.07
  Q 722.55 524.83 732.57 524.82
  Q 735.81 524.82 737.40 524.20
  C 741.23 522.70 743.81 519.12 744.45 514.91
  Q 745.73 506.57 738.52 501.94
  C 734.61 499.42 731.14 499.97 725.25 499.74
  Q 717.40 499.44 711.97 499.80
  A 0.46 0.46 0.0 0 0 711.53 500.26"
/>
<path stroke="#8993a3" vector-effect="non-scaling-stroke" d="
  M 388.41 500.23
  L 388.33 551.61
  A 0.25 0.25 0.0 0 0 388.57 551.86
  L 405.41 551.89
  A 24.11 23.58 0.1 0 0 429.57 528.36
  L 429.57 523.64
  A 24.11 23.58 0.1 0 0 405.51 500.01
  L 388.67 499.98
  A 0.25 0.25 0.0 0 0 388.41 500.23"
/>
<path stroke="#8993a3" vector-effect="non-scaling-stroke" d="
  M 467.38 531.28
  L 494.40 531.04
  A 0.15 0.15 0.0 0 0 494.55 530.89
  L 494.55 530.83
  A 13.29 12.94 89.5 0 0 481.49 517.65
  L 480.05 517.67
  A 13.29 12.94 89.5 0 0 467.23 531.07
  L 467.23 531.13
  A 0.15 0.15 0.0 0 0 467.38 531.28"
/>
<path stroke="#8993a3" vector-effect="non-scaling-stroke" d="
  M 665.52 539.63
  Q 657.47 539.40 650.53 539.83
  C 646.18 540.09 642.81 543.06 643.13 547.66
  C 643.77 556.54 655.64 556.28 661.18 553.18
  C 665.14 550.96 665.58 547.54 666.07 543.30
  Q 666.30 541.30 666.12 540.15
  A 0.63 0.62 85.5 0 0 665.52 539.63"
/>
<path stroke="#c4c3c0" vector-effect="non-scaling-stroke" d="
  M 806.75 540.27
  A 0.72 0.71 -2.1 0 0 806.03 539.61
  Q 801.37 539.63 793.26 539.75
  C 788.90 539.81 784.05 541.27 782.98 545.69
  Q 782.22 548.82 784.32 551.58
  C 787.31 555.52 793.10 555.29 797.65 554.30
  C 804.28 552.87 807.26 546.55 806.75 540.27"
/>
</g>
<path fill="#ffffff" d="
  M 1024.00 0.00
  L 1024.00 1024.00
  L 0.00 1024.00
  L 0.00 0.00
  L 1024.00 0.00
  Z
  M 147.4133 376.1568
  A 0.99 0.99 0.0 0 0 146.4268 375.1634
  L 138.7868 375.1367
  A 0.99 0.99 0.0 0 0 137.7934 376.1232
  L 137.7667 383.7632
  A 0.99 0.99 0.0 0 0 138.7532 384.7566
  L 146.3932 384.7833
  A 0.99 0.99 0.0 0 0 147.3866 383.7968
  L 147.4133 376.1568
  Z
  M 189.3844 389.8307
  A 0.85 0.85 0.0 0 0 188.5285 388.9866
  L 178.9287 389.0537
  A 0.85 0.85 0.0 0 0 178.0847 389.9096
  L 178.1556 400.0693
  A 0.85 0.85 0.0 0 0 179.0115 400.9134
  L 188.6113 400.8463
  A 0.85 0.85 0.0 0 0 189.4553 399.9904
  L 189.3844 389.8307
  Z
  M 128.58 403.26
  A 0.84 0.84 0.0 0 0 129.42 402.42
  L 129.42 395.22
  A 0.84 0.84 0.0 0 0 128.58 394.38
  L 121.39 394.38
  A 0.84 0.84 0.0 0 0 120.55 395.22
  L 120.55 402.42
  A 0.84 0.84 0.0 0 0 121.39 403.26
  L 128.58 403.26
  Z
  M 153.2106 400.8495
  A 1.01 1.01 0.0 0 0 152.1866 399.8537
  L 144.0474 399.9673
  A 1.01 1.01 0.0 0 0 143.0516 400.9913
  L 143.1694 409.4305
  A 1.01 1.01 0.0 0 0 144.1934 410.4263
  L 152.3326 410.3127
  A 1.01 1.01 0.0 0 0 153.3284 409.2887
  L 153.2106 400.8495
  Z
  M 177.90 411.01
  A 1.06 1.06 0.0 0 0 176.84 409.95
  L 160.54 409.95
  A 1.06 1.06 0.0 0 0 159.48 411.01
  L 159.48 427.31
  A 1.06 1.06 0.0 0 0 160.54 428.37
  L 176.84 428.37
  A 1.06 1.06 0.0 0 0 177.90 427.31
  L 177.90 411.01
  Z
  M 124.70 427.28
  A 0.67 0.67 0.0 0 0 125.37 427.95
  L 134.18 427.95
  A 0.67 0.67 0.0 0 0 134.85 427.28
  L 134.85 418.46
  A 0.67 0.67 0.0 0 0 134.18 417.79
  L 125.37 417.79
  A 0.67 0.67 0.0 0 0 124.70 418.46
  L 124.70 427.28
  Z
  M 200.5451 425.1463
  A 0.71 0.71 0.0 0 0 199.8363 424.4351
  L 182.5563 424.4049
  A 0.71 0.71 0.0 0 0 181.8451 425.1137
  L 181.8149 442.3937
  A 0.71 0.71 0.0 0 0 182.5237 443.1049
  L 199.8037 443.1351
  A 0.71 0.71 0.0 0 0 200.5149 442.4263
  L 200.5451 425.1463
  Z
  M 160.2938 434.7006
  A 0.95 0.95 0.0 0 0 159.3388 433.7556
  L 142.3391 433.8446
  A 0.95 0.95 0.0 0 0 141.3941 434.7996
  L 141.4862 452.3994
  A 0.95 0.95 0.0 0 0 142.4412 453.3444
  L 159.4409 453.2554
  A 0.95 0.95 0.0 0 0 160.3859 452.3004
  L 160.2938 434.7006
  Z
  M 206.23 435.95
  L 206.23 445.04
  A 0.54 0.53 87.6 0 0 206.81 445.58
  C 214.04 445.02 221.24 446.28 228.18 449.43
  C 246.74 457.87 260.15 469.87 279.85 459.95
  A 0.64 0.63 34.3 0 0 279.62 458.75
  Q 277.67 458.57 274.25 458.45
  C 263.13 458.04 251.99 450.66 241.89 444.62
  C 231.21 438.22 219.26 434.61 206.59 435.56
  A 0.39 0.38 88.5 0 0 206.23 435.95
  Z
  M 260.00 445.42
  A 0.73 0.73 0.0 0 0 259.96 446.76
  C 263.81 448.60 271.38 451.91 275.77 450.03
  C 288.53 444.57 300.41 443.17 312.91 450.60
  C 321.23 455.54 323.79 462.30 326.73 471.21
  A 0.97 0.96 57.0 0 0 328.36 471.56
  L 333.97 465.37
  A 2.26 2.24 -30.6 0 0 334.50 463.34
  Q 332.58 455.01 325.13 447.87
  Q 311.85 435.14 295.09 435.46
  C 283.38 435.69 272.35 440.40 260.00 445.42
  Z
  M 167.07 526.35
  Q 161.05 532.38 155.81 540.33
  Q 153.83 543.34 152.91 547.73
  C 150.04 561.48 173.05 560.21 180.26 559.31
  C 189.67 558.14 200.83 555.63 209.97 552.84
  Q 242.25 542.98 270.10 530.31
  Q 285.99 523.09 308.49 510.68
  Q 315.14 507.01 323.48 501.60
  C 334.60 494.38 345.39 487.17 353.91 477.67
  C 360.84 469.95 370.53 457.38 357.72 449.56
  C 351.68 445.87 341.34 445.07 333.89 445.87
  A 0.39 0.39 0.0 0 0 333.84 446.64
  Q 337.38 447.51 340.35 449.43
  C 354.08 458.27 335.31 474.72 328.18 480.44
  Q 313.74 492.03 297.28 501.27
  Q 265.93 518.89 235.91 530.37
  C 215.64 538.12 196.63 544.53 176.35 544.45
  C 170.78 544.43 164.55 543.71 164.14 536.94
  Q 163.81 531.58 167.87 526.58
  A 0.05 0.05 0.0 0 0 167.86 526.51
  L 167.67 526.33
  A 0.43 0.43 0.0 0 0 167.07 526.35
  Z
  M 191.1659 450.4849
  A 0.75 0.75 0.0 0 0 190.4133 449.7376
  L 166.0534 449.8226
  A 0.75 0.75 0.0 0 0 165.3061 450.5752
  L 165.3941 475.7951
  A 0.75 0.75 0.0 0 0 166.1467 476.5424
  L 190.5066 476.4574
  A 0.75 0.75 0.0 0 0 191.2539 475.7048
  L 191.1659 450.4849
  Z
  M 210.08 464.74
  A 0.53 0.53 0.0 0 0 209.55 464.21
  L 198.35 464.21
  A 0.53 0.53 0.0 0 0 197.82 464.74
  L 197.82 475.94
  A 0.53 0.53 0.0 0 0 198.35 476.47
  L 209.55 476.47
  A 0.53 0.53 0.0 0 0 210.08 475.94
  L 210.08 464.74
  Z
  M 191.43 535.29
  Q 186.66 522.32 183.16 510.61
  C 180.22 500.80 179.73 494.04 179.42 483.28
  A 1.26 1.25 89.1 0 0 178.17 482.06
  L 170.75 482.06
  A 1.27 1.26 89.8 0 0 169.49 483.34
  Q 169.60 497.97 173.03 510.28
  C 175.63 519.66 177.99 528.20 180.91 536.16
  A 2.64 2.63 77.2 0 0 183.61 537.87
  L 190.17 537.28
  A 1.48 1.48 0.0 0 0 191.43 535.29
  Z
  M 878.07 556.72
  L 878.07 565.15
  A 0.42 0.42 0.0 0 0 878.49 565.57
  L 891.38 565.57
  A 0.59 0.59 0.0 0 0 891.97 564.98
  L 891.97 484.42
  A 1.22 1.22 0.0 0 0 890.75 483.20
  L 877.38 483.20
  A 0.77 0.76 90.0 0 0 876.62 483.97
  L 876.62 513.50
  A 0.28 0.27 -69.1 0 1 876.16 513.71
  Q 874.98 512.63 873.26 510.89
  C 865.89 503.44 852.42 503.90 843.98 509.48
  C 829.99 518.75 827.98 537.81 834.65 552.19
  C 842.32 568.72 866.94 572.45 877.55 556.57
  A 0.28 0.28 0.0 0 1 878.07 556.72
  Z
  M 743.76 536.57
  C 755.54 533.79 761.28 521.86 760.52 510.52
  Q 759.59 496.47 748.38 489.95
  C 742.36 486.44 735.82 486.02 728.50 485.98
  Q 719.46 485.93 696.89 485.84
  A 0.48 0.48 0.0 0 0 696.40 486.32
  L 696.40 564.77
  A 0.81 0.81 0.0 0 0 697.21 565.58
  L 710.62 565.58
  A 0.87 0.87 0.0 0 0 711.49 564.71
  L 711.49 539.47
  A 0.33 0.33 0.0 0 1 711.82 539.14
  L 725.63 539.14
  A 1.90 1.88 -16.8 0 1 727.20 539.97
  Q 733.84 549.70 741.74 561.29
  C 743.48 563.84 744.54 565.71 747.99 565.71
  Q 757.83 565.73 763.01 566.04
  A 0.42 0.42 0.0 0 0 763.42 565.45
  Q 762.64 563.69 761.60 562.19
  Q 759.50 559.14 747.14 541.90
  Q 745.69 539.87 743.51 537.34
  A 0.47 0.47 0.0 0 1 743.76 536.57
  Z
  M 372.93 486.49
  L 372.65 565.39
  A 0.28 0.28 0.0 0 0 372.93 565.67
  L 407.09 565.79
  A 37.74 37.72 0.2 0 0 444.96 528.21
  L 444.98 524.19
  A 37.74 37.72 0.2 0 0 407.37 486.33
  L 373.21 486.22
  A 0.28 0.28 0.0 0 0 372.93 486.49
  Z
  M 606.37 519.37
  L 620.34 519.47
  A 1.13 1.13 0.0 0 0 621.48 518.34
  L 621.48 507.70
  A 0.88 0.88 0.0 0 0 620.60 506.82
  L 606.85 506.82
  A 0.47 0.47 0.0 0 1 606.38 506.35
  L 606.38 490.12
  A 0.50 0.50 0.0 0 0 605.88 489.62
  L 592.63 489.62
  A 0.45 0.44 0.0 0 0 592.18 490.06
  L 592.18 505.83
  A 0.73 0.72 -0.0 0 1 591.45 506.55
  L 583.63 506.55
  A 0.73 0.72 -90.0 0 0 582.91 507.28
  L 582.91 518.71
  A 0.61 0.61 0.0 0 0 583.52 519.32
  L 591.50 519.32
  A 0.61 0.61 0.0 0 1 592.11 519.94
  Q 591.88 533.33 591.97 547.75
  C 592.00 553.59 594.09 561.11 599.54 563.83
  Q 611.79 569.92 623.46 562.29
  A 0.63 0.63 0.0 0 0 623.71 561.58
  L 620.44 551.39
  A 0.41 0.41 0.0 0 0 619.91 551.14
  C 615.89 552.71 610.58 554.39 607.49 550.23
  Q 605.98 548.20 606.04 541.99
  Q 606.24 520.74 605.98 519.91
  A 0.41 0.41 0.0 0 1 606.37 519.37
  Z
  M 338.47 500.22
  A 0.62 0.62 0.0 0 0 337.48 499.61
  L 329.19 506.32
  A 4.49 3.84 -73.4 0 1 328.43 506.81
  L 325.69 508.20
  A 1.63 1.62 85.7 0 0 324.91 509.11
  Q 324.63 509.78 324.32 512.55
  C 323.72 517.75 321.46 524.95 318.92 531.58
  Q 315.45 540.66 314.25 544.76
  Q 312.75 549.93 311.10 561.12
  Q 309.79 570.07 306.72 582.98
  Q 304.77 591.18 299.14 601.19
  C 296.95 605.08 292.06 608.91 288.23 604.18
  Q 286.24 601.72 284.55 597.45
  C 279.37 584.36 275.41 554.53 258.18 550.25
  C 253.50 549.09 247.22 550.78 243.52 554.05
  C 236.78 559.99 233.94 566.99 230.63 576.38
  C 227.85 584.28 225.90 595.11 220.91 602.88
  Q 220.00 604.30 217.87 605.76
  A 1.70 1.68 -58.2 0 1 216.71 606.04
  C 210.06 605.19 206.83 595.92 204.90 590.36
  Q 200.24 576.88 198.48 563.92
  A 1.13 1.13 0.0 0 0 197.16 562.96
  L 188.67 564.50
  A 1.06 1.05 80.3 0 0 187.82 565.71
  Q 188.88 572.09 191.12 580.28
  C 194.38 592.20 196.94 601.46 203.44 610.27
  C 206.86 614.89 213.19 618.52 219.27 616.76
  Q 225.41 614.98 228.28 610.43
  C 236.38 597.61 237.83 583.05 244.63 568.88
  C 247.25 563.43 251.88 557.95 258.11 561.30
  C 262.13 563.46 265.58 570.89 266.92 575.37
  C 269.70 584.67 273.30 597.93 278.03 607.42
  C 280.59 612.55 286.22 617.96 292.24 617.18
  C 300.22 616.15 305.17 610.70 308.99 603.99
  Q 315.73 592.17 318.38 578.94
  Q 320.01 570.78 322.39 557.38
  Q 324.23 547.08 325.76 542.99
  Q 333.85 521.38 338.47 500.22
  Z
  M 466.76 541.24
  A 0.24 0.23 84.9 0 1 466.99 540.96
  L 508.21 540.96
  A 0.46 0.46 0.0 0 0 508.67 540.51
  C 508.90 530.29 508.29 521.22 501.29 513.13
  C 495.26 506.16 484.47 504.30 475.77 505.69
  C 462.59 507.80 453.95 518.39 452.58 531.44
  C 451.38 542.93 455.25 556.39 465.62 562.17
  Q 479.72 570.03 495.27 563.54
  C 499.47 561.79 502.83 558.65 505.53 555.10
  A 0.69 0.69 0.0 0 0 505.45 554.17
  L 497.67 547.12
  A 0.84 0.83 -47.7 0 0 496.50 547.18
  Q 491.83 552.30 485.46 553.60
  C 480.55 554.61 473.26 553.00 470.08 548.75
  Q 467.60 545.41 466.76 541.24
  Z
  M 534.05 514.75
  L 534.05 507.29
  A 0.68 0.68 0.0 0 0 533.37 506.61
  L 520.47 506.61
  A 0.61 0.61 0.0 0 0 519.86 507.22
  L 519.86 564.96
  A 0.55 0.54 90.0 0 0 520.40 565.51
  L 533.70 565.51
  A 0.70 0.70 0.0 0 0 534.40 564.81
  Q 534.53 542.77 534.34 534.93
  C 534.12 525.80 539.16 518.19 549.17 518.94
  C 554.36 519.33 557.01 522.13 559.00 526.56
  Q 559.98 528.74 560.02 533.75
  Q 560.15 547.78 560.07 564.98
  A 0.57 0.57 0.0 0 0 560.64 565.55
  L 573.94 565.55
  A 0.55 0.55 0.0 0 0 574.49 565.00
  Q 574.55 540.44 574.27 528.52
  C 574.02 518.37 570.05 508.47 559.54 506.03
  C 549.91 503.81 540.34 506.29 534.58 514.91
  A 0.29 0.29 0.0 0 1 534.05 514.75
  Z
  M 666.53 559.24
  L 666.53 564.39
  A 1.03 1.03 0.0 0 0 667.56 565.42
  L 680.36 565.42
  A 0.51 0.51 0.0 0 0 680.87 564.91
  Q 680.69 551.53 680.64 531.77
  Q 680.62 525.34 679.63 521.81
  Q 675.16 505.96 657.99 505.39
  C 650.30 505.13 638.99 506.93 632.55 512.17
  A 0.63 0.62 -39.5 0 0 632.46 513.05
  Q 633.55 514.34 633.84 515.19
  Q 635.16 519.14 636.76 522.78
  A 0.93 0.93 0.0 0 0 638.15 523.17
  C 644.97 518.38 656.31 515.58 663.28 521.41
  C 666.10 523.77 666.34 526.56 666.32 529.73
  A 0.67 0.67 0.0 0 1 665.63 530.39
  C 657.20 530.12 644.56 528.87 636.97 533.41
  C 628.33 538.58 626.03 549.92 631.41 558.32
  C 637.57 567.93 649.53 568.28 659.53 563.95
  C 662.06 562.86 663.39 561.25 665.61 558.88
  A 0.53 0.53 0.0 0 1 666.53 559.24
  Z
  M 806.10 530.58
  C 800.93 529.76 795.71 529.85 790.62 529.81
  C 777.95 529.71 766.72 538.08 769.03 551.78
  Q 770.83 562.46 781.67 565.83
  C 790.27 568.50 800.43 565.31 806.35 558.99
  A 0.66 0.66 0.0 0 1 807.49 559.44
  L 807.49 564.92
  A 0.68 0.68 0.0 0 0 808.17 565.60
  L 820.64 565.60
  A 1.02 1.02 0.0 0 0 821.66 564.56
  Q 821.39 549.51 821.40 530.50
  C 821.41 518.35 816.54 509.00 803.96 506.25
  Q 788.22 502.80 774.21 511.06
  A 1.80 1.79 -26.8 0 0 773.47 513.29
  L 777.28 522.30
  A 1.12 1.12 0.0 0 0 778.94 522.80
  Q 786.58 517.73 795.55 518.29
  Q 806.48 518.98 806.73 530.04
  A 0.55 0.54 4.1 0 1 806.10 530.58
  Z"
/>
<rect fill="#a78e62" x="-4.81" y="-4.81" transform="translate(142.59,379.96) rotate(0.2)" width="9.62" height="9.62" rx="0.99"/>
<rect fill="#898680" x="-5.65" y="-5.93" transform="translate(183.77,394.95) rotate(-0.4)" width="11.30" height="11.86" rx="0.85"/>
<path fill="#a78e62" d="
  M 128.58 403.26
  L 121.39 403.26
  A 0.84 0.84 0.0 0 1 120.55 402.42
  L 120.55 395.22
  A 0.84 0.84 0.0 0 1 121.39 394.38
  L 128.58 394.38
  A 0.84 0.84 0.0 0 1 129.42 395.22
  L 129.42 402.42
  A 0.84 0.84 0.0 0 1 128.58 403.26
  Z"
/>
<rect fill="#898680" x="-5.08" y="-5.23" transform="translate(148.19,405.14) rotate(-0.8)" width="10.16" height="10.46" rx="1.01"/>
<rect fill="#a78e62" x="159.48" y="409.95" width="18.42" height="18.42" rx="1.06"/>
<path fill="#898680" d="
  M 124.70 427.28
  L 124.70 418.46
  A 0.67 0.67 0.0 0 1 125.37 417.79
  L 134.18 417.79
  A 0.67 0.67 0.0 0 1 134.85 418.46
  L 134.85 427.28
  A 0.67 0.67 0.0 0 1 134.18 427.95
  L 125.37 427.95
  A 0.67 0.67 0.0 0 1 124.70 427.28
  Z"
/>
<rect fill="#898680" x="-9.35" y="-9.35" transform="translate(191.18,433.77) rotate(0.1)" width="18.70" height="18.70" rx="0.71"/>
<rect fill="#898680" x="-9.45" y="-9.75" transform="translate(150.89,443.55) rotate(-0.3)" width="18.90" height="19.50" rx="0.95"/>
<path fill="#a78e62" d="
  M 206.23 435.95
  A 0.39 0.38 88.5 0 1 206.59 435.56
  C 219.26 434.61 231.21 438.22 241.89 444.62
  C 251.99 450.66 263.13 458.04 274.25 458.45
  Q 277.67 458.57 279.62 458.75
  A 0.64 0.63 34.3 0 1 279.85 459.95
  C 260.15 469.87 246.74 457.87 228.18 449.43
  C 221.24 446.28 214.04 445.02 206.81 445.58
  A 0.54 0.53 87.6 0 1 206.23 445.04
  L 206.23 435.95
  Z"
/>
<path fill="#a78e62" d="
  M 260.00 445.42
  C 272.35 440.40 283.38 435.69 295.09 435.46
  Q 311.85 435.14 325.13 447.87
  Q 332.58 455.01 334.50 463.34
  A 2.26 2.24 -30.6 0 1 333.97 465.37
  L 328.36 471.56
  A 0.97 0.96 57.0 0 1 326.73 471.21
  C 323.79 462.30 321.23 455.54 312.91 450.60
  C 300.41 443.17 288.53 444.57 275.77 450.03
  C 271.38 451.91 263.81 448.60 259.96 446.76
  A 0.73 0.73 0.0 0 1 260.00 445.42
  Z"
/>
<path fill="#132647" d="
  M 167.07 526.35
  A 0.43 0.43 0.0 0 1 167.67 526.33
  L 167.86 526.51
  A 0.05 0.05 0.0 0 1 167.87 526.58
  Q 163.81 531.58 164.14 536.94
  C 164.55 543.71 170.78 544.43 176.35 544.45
  C 196.63 544.53 215.64 538.12 235.91 530.37
  Q 265.93 518.89 297.28 501.27
  Q 313.74 492.03 328.18 480.44
  C 335.31 474.72 354.08 458.27 340.35 449.43
  Q 337.38 447.51 333.84 446.64
  A 0.39 0.39 0.0 0 1 333.89 445.87
  C 341.34 445.07 351.68 445.87 357.72 449.56
  C 370.53 457.38 360.84 469.95 353.91 477.67
  C 345.39 487.17 334.60 494.38 323.48 501.60
  Q 315.14 507.01 308.49 510.68
  Q 285.99 523.09 270.10 530.31
  Q 242.25 542.98 209.97 552.84
  C 200.83 555.63 189.67 558.14 180.26 559.31
  C 173.05 560.21 150.04 561.48 152.91 547.73
  Q 153.83 543.34 155.81 540.33
  Q 161.05 532.38 167.07 526.35
  Z"
/>
<rect fill="#a78e62" x="-12.93" y="-13.36" transform="translate(178.28,463.14) rotate(-0.2)" width="25.86" height="26.72" rx="0.75"/>
<rect fill="#a78e62" x="197.82" y="464.21" width="12.26" height="12.26" rx="0.53"/>
<path fill="#a78e62" d="
  M 191.43 535.29
  A 1.48 1.48 0.0 0 1 190.17 537.28
  L 183.61 537.87
  A 2.64 2.63 77.2 0 1 180.91 536.16
  C 177.99 528.20 175.63 519.66 173.03 510.28
  Q 169.60 497.97 169.49 483.34
  A 1.27 1.26 89.8 0 1 170.75 482.06
  L 178.17 482.06
  A 1.26 1.25 89.1 0 1 179.42 483.28
  C 179.73 494.04 180.22 500.80 183.16 510.61
  Q 186.66 522.32 191.43 535.29
  Z"
/>
<path fill="#898680" d="
  M 878.07 556.72
  A 0.28 0.28 0.0 0 0 877.55 556.57
  C 866.94 572.45 842.32 568.72 834.65 552.19
  C 827.98 537.81 829.99 518.75 843.98 509.48
  C 852.42 503.90 865.89 503.44 873.26 510.89
  Q 874.98 512.63 876.16 513.71
  A 0.28 0.27 -69.1 0 0 876.62 513.50
  L 876.62 483.97
  A 0.77 0.76 -90.0 0 1 877.38 483.20
  L 890.75 483.20
  A 1.22 1.22 0.0 0 1 891.97 484.42
  L 891.97 564.98
  A 0.59 0.59 0.0 0 1 891.38 565.57
  L 878.49 565.57
  A 0.42 0.42 0.0 0 1 878.07 565.15
  L 878.07 556.72
  Z
  M 860.5107 518.7388
  A 17.36 15.63 -93.3 0 0 845.9059 536.9697
  A 17.36 15.63 -93.3 0 0 862.5093 553.4012
  A 17.36 15.63 -93.3 0 0 877.1141 535.1703
  A 17.36 15.63 -93.3 0 0 860.5107 518.7388
  Z"
/>
<path fill="#898680" d="
  M 743.76 536.57
  A 0.47 0.47 0.0 0 0 743.51 537.34
  Q 745.69 539.87 747.14 541.90
  Q 759.50 559.14 761.60 562.19
  Q 762.64 563.69 763.42 565.45
  A 0.42 0.42 0.0 0 1 763.01 566.04
  Q 757.83 565.73 747.99 565.71
  C 744.54 565.71 743.48 563.84 741.74 561.29
  Q 733.84 549.70 727.20 539.97
  A 1.90 1.88 -16.8 0 0 725.63 539.14
  L 711.82 539.14
  A 0.33 0.33 0.0 0 0 711.49 539.47
  L 711.49 564.71
  A 0.87 0.87 0.0 0 1 710.62 565.58
  L 697.21 565.58
  A 0.81 0.81 0.0 0 1 696.40 564.77
  L 696.40 486.32
  A 0.48 0.48 0.0 0 1 696.89 485.84
  Q 719.46 485.93 728.50 485.98
  C 735.82 486.02 742.36 486.44 748.38 489.95
  Q 759.59 496.47 760.52 510.52
  C 761.28 521.86 755.54 533.79 743.76 536.57
  Z
  M 711.53 500.26
  L 711.53 524.40
  A 0.67 0.67 0.0 0 0 712.22 525.07
  Q 722.55 524.83 732.57 524.82
  Q 735.81 524.82 737.40 524.20
  C 741.23 522.70 743.81 519.12 744.45 514.91
  Q 745.73 506.57 738.52 501.94
  C 734.61 499.42 731.14 499.97 725.25 499.74
  Q 717.40 499.44 711.97 499.80
  A 0.46 0.46 0.0 0 0 711.53 500.26
  Z"
/>
<path fill="#132647" d="
  M 372.93 486.49
  A 0.28 0.28 0.0 0 1 373.21 486.22
  L 407.37 486.33
  A 37.74 37.72 0.2 0 1 444.98 524.19
  L 444.96 528.21
  A 37.74 37.72 0.2 0 1 407.09 565.79
  L 372.93 565.67
  A 0.28 0.28 0.0 0 1 372.65 565.39
  L 372.93 486.49
  Z
  M 388.41 500.23
  L 388.33 551.61
  A 0.25 0.25 0.0 0 0 388.57 551.86
  L 405.41 551.89
  A 24.11 23.58 0.1 0 0 429.57 528.36
  L 429.57 523.64
  A 24.11 23.58 0.1 0 0 405.51 500.01
  L 388.67 499.98
  A 0.25 0.25 0.0 0 0 388.41 500.23
  Z"
/>
<path fill="#132647" d="
  M 605.98 519.91
  Q 606.24 520.74 606.04 541.99
  Q 605.98 548.20 607.49 550.23
  C 610.58 554.39 615.89 552.71 619.91 551.14
  A 0.41 0.41 0.0 0 1 620.44 551.39
  L 623.71 561.58
  A 0.63 0.63 0.0 0 1 623.46 562.29
  Q 611.79 569.92 599.54 563.83
  C 594.09 561.11 592.00 553.59 591.97 547.75
  Q 591.88 533.33 592.11 519.94
  A 0.61 0.61 0.0 0 0 591.50 519.32
  L 583.52 519.32
  A 0.61 0.61 0.0 0 1 582.91 518.71
  L 582.91 507.28
  A 0.73 0.72 90.0 0 1 583.63 506.55
  L 591.45 506.55
  A 0.73 0.72 -0.0 0 0 592.18 505.83
  L 592.18 490.06
  A 0.45 0.44 -0.0 0 1 592.63 489.62
  L 605.88 489.62
  A 0.50 0.50 0.0 0 1 606.38 490.12
  L 606.38 506.35
  A 0.47 0.47 0.0 0 0 606.85 506.82
  L 620.60 506.82
  A 0.88 0.88 0.0 0 1 621.48 507.70
  L 621.48 518.34
  A 1.13 1.13 0.0 0 1 620.34 519.47
  L 606.37 519.37
  A 0.41 0.41 0.0 0 0 605.98 519.91
  Z"
/>
<path fill="#a78e62" d="
  M 338.47 500.22
  Q 333.85 521.38 325.76 542.99
  Q 324.23 547.08 322.39 557.38
  Q 320.01 570.78 318.38 578.94
  Q 315.73 592.17 308.99 603.99
  C 305.17 610.70 300.22 616.15 292.24 617.18
  C 286.22 617.96 280.59 612.55 278.03 607.42
  C 273.30 597.93 269.70 584.67 266.92 575.37
  C 265.58 570.89 262.13 563.46 258.11 561.30
  C 251.88 557.95 247.25 563.43 244.63 568.88
  C 237.83 583.05 236.38 597.61 228.28 610.43
  Q 225.41 614.98 219.27 616.76
  C 213.19 618.52 206.86 614.89 203.44 610.27
  C 196.94 601.46 194.38 592.20 191.12 580.28
  Q 188.88 572.09 187.82 565.71
  A 1.06 1.05 80.3 0 1 188.67 564.50
  L 197.16 562.96
  A 1.13 1.13 0.0 0 1 198.48 563.92
  Q 200.24 576.88 204.90 590.36
  C 206.83 595.92 210.06 605.19 216.71 606.04
  A 1.70 1.68 -58.2 0 0 217.87 605.76
  Q 220.00 604.30 220.91 602.88
  C 225.90 595.11 227.85 584.28 230.63 576.38
  C 233.94 566.99 236.78 559.99 243.52 554.05
  C 247.22 550.78 253.50 549.09 258.18 550.25
  C 275.41 554.53 279.37 584.36 284.55 597.45
  Q 286.24 601.72 288.23 604.18
  C 292.06 608.91 296.95 605.08 299.14 601.19
  Q 304.77 591.18 306.72 582.98
  Q 309.79 570.07 311.10 561.12
  Q 312.75 549.93 314.25 544.76
  Q 315.45 540.66 318.92 531.58
  C 321.46 524.95 323.72 517.75 324.32 512.55
  Q 324.63 509.78 324.91 509.11
  A 1.63 1.62 85.7 0 1 325.69 508.20
  L 328.43 506.81
  A 4.49 3.84 -73.4 0 0 329.19 506.32
  L 337.48 499.61
  A 0.62 0.62 0.0 0 1 338.47 500.22
  Z"
/>
<path fill="#ffffff" d="
  M 388.41 500.23
  A 0.25 0.25 0.0 0 1 388.67 499.98
  L 405.51 500.01
  A 24.11 23.58 0.1 0 1 429.57 523.64
  L 429.57 528.36
  A 24.11 23.58 0.1 0 1 405.41 551.89
  L 388.57 551.86
  A 0.25 0.25 0.0 0 1 388.33 551.61
  L 388.41 500.23
  Z"
/>
<path fill="#ffffff" d="
  M 711.97 499.80
  Q 717.40 499.44 725.25 499.74
  C 731.14 499.97 734.61 499.42 738.52 501.94
  Q 745.73 506.57 744.45 514.91
  C 743.81 519.12 741.23 522.70 737.40 524.20
  Q 735.81 524.82 732.57 524.82
  Q 722.55 524.83 712.22 525.07
  A 0.67 0.67 0.0 0 1 711.53 524.40
  L 711.53 500.26
  A 0.46 0.46 0.0 0 1 711.97 499.80
  Z"
/>
<path fill="#132647" d="
  M 466.76 541.24
  Q 467.60 545.41 470.08 548.75
  C 473.26 553.00 480.55 554.61 485.46 553.60
  Q 491.83 552.30 496.50 547.18
  A 0.84 0.83 -47.7 0 1 497.67 547.12
  L 505.45 554.17
  A 0.69 0.69 0.0 0 1 505.53 555.10
  C 502.83 558.65 499.47 561.79 495.27 563.54
  Q 479.72 570.03 465.62 562.17
  C 455.25 556.39 451.38 542.93 452.58 531.44
  C 453.95 518.39 462.59 507.80 475.77 505.69
  C 484.47 504.30 495.26 506.16 501.29 513.13
  C 508.29 521.22 508.90 530.29 508.67 540.51
  A 0.46 0.46 0.0 0 1 508.21 540.96
  L 466.99 540.96
  A 0.24 0.23 84.9 0 0 466.76 541.24
  Z
  M 467.38 531.28
  L 494.40 531.04
  A 0.15 0.15 0.0 0 0 494.55 530.89
  L 494.55 530.83
  A 13.29 12.94 89.5 0 0 481.49 517.65
  L 480.05 517.67
  A 13.29 12.94 89.5 0 0 467.23 531.07
  L 467.23 531.13
  A 0.15 0.15 0.0 0 0 467.38 531.28
  Z"
/>
<path fill="#132647" d="
  M 534.05 514.75
  A 0.29 0.29 0.0 0 0 534.58 514.91
  C 540.34 506.29 549.91 503.81 559.54 506.03
  C 570.05 508.47 574.02 518.37 574.27 528.52
  Q 574.55 540.44 574.49 565.00
  A 0.55 0.55 0.0 0 1 573.94 565.55
  L 560.64 565.55
  A 0.57 0.57 0.0 0 1 560.07 564.98
  Q 560.15 547.78 560.02 533.75
  Q 559.98 528.74 559.00 526.56
  C 557.01 522.13 554.36 519.33 549.17 518.94
  C 539.16 518.19 534.12 525.80 534.34 534.93
  Q 534.53 542.77 534.40 564.81
  A 0.70 0.70 0.0 0 1 533.70 565.51
  L 520.40 565.51
  A 0.55 0.54 -90.0 0 1 519.86 564.96
  L 519.86 507.22
  A 0.61 0.61 0.0 0 1 520.47 506.61
  L 533.37 506.61
  A 0.68 0.68 0.0 0 1 534.05 507.29
  L 534.05 514.75
  Z"
/>
<path fill="#132647" d="
  M 666.53 559.24
  A 0.53 0.53 0.0 0 0 665.61 558.88
  C 663.39 561.25 662.06 562.86 659.53 563.95
  C 649.53 568.28 637.57 567.93 631.41 558.32
  C 626.03 549.92 628.33 538.58 636.97 533.41
  C 644.56 528.87 657.20 530.12 665.63 530.39
  A 0.67 0.67 0.0 0 0 666.32 529.73
  C 666.34 526.56 666.10 523.77 663.28 521.41
  C 656.31 515.58 644.97 518.38 638.15 523.17
  A 0.93 0.93 0.0 0 1 636.76 522.78
  Q 635.16 519.14 633.84 515.19
  Q 633.55 514.34 632.46 513.05
  A 0.63 0.62 -39.5 0 1 632.55 512.17
  C 638.99 506.93 650.30 505.13 657.99 505.39
  Q 675.16 505.96 679.63 521.81
  Q 680.62 525.34 680.64 531.77
  Q 680.69 551.53 680.87 564.91
  A 0.51 0.51 0.0 0 1 680.36 565.42
  L 667.56 565.42
  A 1.03 1.03 0.0 0 1 666.53 564.39
  L 666.53 559.24
  Z
  M 665.52 539.63
  Q 657.47 539.40 650.53 539.83
  C 646.18 540.09 642.81 543.06 643.13 547.66
  C 643.77 556.54 655.64 556.28 661.18 553.18
  C 665.14 550.96 665.58 547.54 666.07 543.30
  Q 666.30 541.30 666.12 540.15
  A 0.63 0.62 85.5 0 0 665.52 539.63
  Z"
/>
<path fill="#898680" d="
  M 806.10 530.58
  A 0.55 0.54 4.1 0 0 806.73 530.04
  Q 806.48 518.98 795.55 518.29
  Q 786.58 517.73 778.94 522.80
  A 1.12 1.12 0.0 0 1 777.28 522.30
  L 773.47 513.29
  A 1.80 1.79 -26.8 0 1 774.21 511.06
  Q 788.22 502.80 803.96 506.25
  C 816.54 509.00 821.41 518.35 821.40 530.50
  Q 821.39 549.51 821.66 564.56
  A 1.02 1.02 0.0 0 1 820.64 565.60
  L 808.17 565.60
  A 0.68 0.68 0.0 0 1 807.49 564.92
  L 807.49 559.44
  A 0.66 0.66 0.0 0 0 806.35 558.99
  C 800.43 565.31 790.27 568.50 781.67 565.83
  Q 770.83 562.46 769.03 551.78
  C 766.72 538.08 777.95 529.71 790.62 529.81
  C 795.71 529.85 800.93 529.76 806.10 530.58
  Z
  M 806.75 540.27
  A 0.72 0.71 -2.1 0 0 806.03 539.61
  Q 801.37 539.63 793.26 539.75
  C 788.90 539.81 784.05 541.27 782.98 545.69
  Q 782.22 548.82 784.32 551.58
  C 787.31 555.52 793.10 555.29 797.65 554.30
  C 804.28 552.87 807.26 546.55 806.75 540.27
  Z"
/>
<path fill="#ffffff" d="
  M 467.38 531.28
  A 0.15 0.15 0.0 0 1 467.23 531.13
  L 467.23 531.07
  A 13.29 12.94 89.5 0 1 480.05 517.67
  L 481.49 517.65
  A 13.29 12.94 89.5 0 1 494.55 530.83
  L 494.55 530.89
  A 0.15 0.15 0.0 0 1 494.40 531.04
  L 467.38 531.28
  Z"
/>
<ellipse fill="#ffffff" cx="0.00" cy="0.00" transform="translate(861.51,536.07) rotate(-93.3)" rx="17.36" ry="15.63"/>
<path fill="#ffffff" d="
  M 666.12 540.15
  Q 666.30 541.30 666.07 543.30
  C 665.58 547.54 665.14 550.96 661.18 553.18
  C 655.64 556.28 643.77 556.54 643.13 547.66
  C 642.81 543.06 646.18 540.09 650.53 539.83
  Q 657.47 539.40 665.52 539.63
  A 0.63 0.62 85.5 0 1 666.12 540.15
  Z"
/>
<path fill="#ffffff" d="
  M 806.75 540.27
  C 807.26 546.55 804.28 552.87 797.65 554.30
  C 793.10 555.29 787.31 555.52 784.32 551.58
  Q 782.22 548.82 782.98 545.69
  C 784.05 541.27 788.90 539.81 793.26 539.75
  Q 801.37 539.63 806.03 539.61
  A 0.72 0.71 -2.1 0 1 806.75 540.27
  Z"
/>
</svg>
